<?xml version="1.0" encoding="UTF-8" standalone="no"?>
<svg
   xmlns:dc="http://purl.org/dc/elements/1.1/"
   xmlns:cc="http://creativecommons.org/ns#"
   xmlns:rdf="http://www.w3.org/1999/02/22-rdf-syntax-ns#"
   xmlns:svg="http://www.w3.org/2000/svg"
   xmlns="http://www.w3.org/2000/svg"
   xmlns:sodipodi="http://sodipodi.sourceforge.net/DTD/sodipodi-0.dtd"
   xmlns:inkscape="http://www.inkscape.org/namespaces/inkscape"
   width="64"
   height="64"
   version="1"
   id="svg20"
   sodipodi:docname="pardus-imagewriter.svg"
   inkscape:version="0.92.1 r15371">
  <metadata
     id="metadata26">
    <rdf:RDF>
      <cc:Work
         rdf:about="">
        <dc:format>image/svg+xml</dc:format>
        <dc:type
           rdf:resource="http://purl.org/dc/dcmitype/StillImage" />
        <dc:title></dc:title>
      </cc:Work>
    </rdf:RDF>
  </metadata>
  <defs
     id="defs24" />
  <sodipodi:namedview
     pagecolor="#ffffff"
     bordercolor="#666666"
     borderopacity="1"
     objecttolerance="10"
     gridtolerance="10"
     guidetolerance="10"
     inkscape:pageopacity="0"
     inkscape:pageshadow="2"
     inkscape:window-width="1611"
     inkscape:window-height="802"
     id="namedview22"
     showgrid="false"
     inkscape:zoom="3.6875"
     inkscape:cx="69.99686"
     inkscape:cy="21.134841"
     inkscape:window-x="2120"
     inkscape:window-y="199"
     inkscape:window-maximized="0"
     inkscape:current-layer="svg20" />
  <g
     id="g4521"
     transform="matrix(1.0714286,0,0,1.0714286,-2.2857144,-2.2142874)">
    <rect
       id="rect2"
       ry="2.5"
       rx="2.5"
       y="25"
       x="4"
       height="34"
       width="56"
       style="opacity:0.2" />
    <rect
       id="rect4"
       y="6"
       x="12"
       height="20"
       width="40"
       style="fill:#b7b7b7" />
    <rect
       id="rect6"
       ry="2.5"
       rx="2.5"
       y="24"
       x="4"
       height="34"
       width="56"
       style="fill:#5b5b5b" />
    <rect
       id="rect14"
       y="14"
       x="16"
       height="6"
       width="10"
       style="opacity:0.5" />
    <rect
       id="rect16"
       y="14"
       x="38"
       height="6"
       width="10"
       style="opacity:0.5" />
    <path
       id="path18"
       d="M 12,6 V 7 H 52 V 6 Z"
       style="opacity:0.2;fill:#ffffff"
       inkscape:connector-curvature="0" />
  </g>
  <g
     aria-label="PIW"
     style="font-style:normal;font-variant:normal;font-weight:normal;font-stretch:normal;font-size:66.66666412px;line-height:25px;font-family:Pardus;-inkscape-font-specification:Pardus;letter-spacing:0px;word-spacing:0px;fill:#ffcb08;fill-opacity:1;stroke:none;stroke-width:1px;stroke-linecap:butt;stroke-linejoin:miter;stroke-opacity:1"
     id="text4495"
     transform="matrix(0.5397892,0,0,0.5397892,78.555129,23.11308)">
    <path
       d="m -99.593224,37.220338 c 0,2.333333 -0.799996,4.266666 -2.399996,5.866666 -1.66667,1.666667 -3.6,2.466667 -5.93334,2.466667 0,0 -1.66666,0 -1.66666,0 -1.13334,0 -1.66667,0.533333 -1.66667,1.666666 0,0 0,6.666667 0,6.666667 0,0.933333 -0.33333,1.733333 -0.93333,2.333333 -0.66667,0.666667 -1.46667,1 -2.4,1 0,0 -1.66667,0 -1.66667,0 -0.93333,0 -1.73333,-0.333333 -2.33333,-1 -0.66667,-0.6 -1,-1.4 -1,-2.333333 0,0 0,-38.333332 0,-38.333332 0,-2.333333 0.8,-4.266667 2.46666,-5.9333333 1.6,-1.5999999 3.53334,-2.3999999 5.86667,-2.3999999 0,0 3.33333,0 3.33333,0 2.33334,0 4.26667,0.8 5.93334,2.3999999 1.6,1.6666663 2.399996,3.6000003 2.399996,5.9333333 0,0 0,21.666666 0,21.666666 z m -8.333336,-1.666667 c 0,0 0,-18.333333 0,-18.333333 0,-1.133333 -0.53333,-1.666666 -1.66666,-1.666666 -1.13334,0 -1.66667,0.533333 -1.66667,1.666666 0,0 0,18.333333 0,18.333333 0,1.133333 0.53333,1.666667 1.66667,1.666667 1.13333,0 1.66666,-0.533334 1.66666,-1.666667 z"
       id="path4497"
       inkscape:connector-curvature="0"
       style="fill:#ffcb08;fill-opacity:1" />
    <path
       d="m -87.9526,53.887004 c 0,0.933333 -0.333333,1.733333 -0.933333,2.333333 -0.666666,0.666667 -1.466666,1 -2.4,1 0,0 -1.666666,0 -1.666666,0 -0.933334,0 -1.733334,-0.333333 -2.333334,-1 -0.666666,-0.6 -1,-1.4 -1,-2.333333 0,0 0,-43.333332 0,-43.333332 0,-0.9333333 0.333334,-1.7333332 1,-2.3999999 0.6,-0.6 1.4,-0.9333333 2.333334,-0.9333333 0,0 1.666666,0 1.666666,0 0.933334,0 1.733334,0.3333333 2.4,0.9333333 0.6,0.6666667 0.933333,1.4666666 0.933333,2.3999999 0,0 0,43.333332 0,43.333332 z"
       id="path4499"
       inkscape:connector-curvature="0"
       style="fill:#ffcb08;fill-opacity:1" />
    <path
       d="m -52.900519,48.887004 c 0,2.333333 -0.8,4.266666 -2.4,5.866666 -1.666667,1.666667 -3.6,2.466667 -5.933333,2.466667 0,0 -3.333333,0 -3.333333,0 -1.533333,0 -2.866667,-0.4 -4.133333,-1.133333 -1.266667,0.733333 -2.666667,1.133333 -4.2,1.133333 0,0 -3.333333,0 -3.333333,0 -2.333334,0 -4.266667,-0.8 -5.866667,-2.466667 -1.666666,-1.6 -2.466666,-3.533333 -2.466666,-5.866666 0,0 0,-38.333332 0,-38.333332 0,-0.9333333 0.333333,-1.7333332 1,-2.3999999 0.599999,-0.6 1.399999,-0.9333333 2.333333,-0.9333333 0,0 1.666666,0 1.666666,0 0.933334,0 1.733334,0.3333333 2.4,0.9333333 0.6,0.6666667 0.933334,1.4666666 0.933334,2.3999999 0,0 0,36.666665 0,36.666665 0,1.133334 0.533333,1.666667 1.666666,1.666667 1.133333,0 1.666667,-0.533333 1.666667,-1.666667 0,0 0,-36.666665 0,-36.666665 0,-0.9333333 0.333333,-1.7333332 1,-2.3999999 0.6,-0.6 1.4,-0.9333333 2.333333,-0.9333333 0,0 1.666667,0 1.666667,0 0.933333,0 1.733333,0.3333333 2.399999,0.9333333 0.6,0.6666667 0.933334,1.4666666 0.933334,2.3999999 0,0 0,36.666665 0,36.666665 0,1.133334 0.533333,1.666667 1.666666,1.666667 1.133334,0 1.666667,-0.533333 1.666667,-1.666667 0,0 0,-36.666665 0,-36.666665 0,-0.9333333 0.333333,-1.7333332 1,-2.3999999 0.6,-0.6 1.4,-0.9333333 2.333333,-0.9333333 0,0 1.666667,0 1.666667,0 0.933333,0 1.733333,0.3333333 2.4,0.9333333 0.6,0.6666667 0.933333,1.4666666 0.933333,2.3999999 0,0 0,38.333332 0,38.333332 z"
       id="path4501"
       inkscape:connector-curvature="0"
       style="fill:#ffcb08;fill-opacity:1" />
  </g>
</svg>
