<?xml version="1.0" encoding="UTF-8" standalone="no"?>
<!-- Created with Inkscape (http://www.inkscape.org/) -->

<svg
   xmlns:dc="http://purl.org/dc/elements/1.1/"
   xmlns:cc="http://creativecommons.org/ns#"
   xmlns:rdf="http://www.w3.org/1999/02/22-rdf-syntax-ns#"
   xmlns:svg="http://www.w3.org/2000/svg"
   xmlns="http://www.w3.org/2000/svg"
   xmlns:sodipodi="http://sodipodi.sourceforge.net/DTD/sodipodi-0.dtd"
   xmlns:inkscape="http://www.inkscape.org/namespaces/inkscape"
   width="48"
   height="48"
   viewBox="0 0 12.7 12.7"
   version="1.1"
   id="svg8"
   inkscape:version="0.92.1 r15371"
   sodipodi:docname="info.svg">
  <defs
     id="defs2" />
  <sodipodi:namedview
     id="base"
     pagecolor="#ffffff"
     bordercolor="#666666"
     borderopacity="1.0"
     inkscape:pageopacity="0.0"
     inkscape:pageshadow="2"
     inkscape:zoom="3.959798"
     inkscape:cx="26.524085"
     inkscape:cy="29.218397"
     inkscape:document-units="px"
     inkscape:current-layer="layer1"
     showgrid="false"
     inkscape:window-width="1920"
     inkscape:window-height="1140"
     inkscape:window-x="1920"
     inkscape:window-y="0"
     inkscape:window-maximized="1"
     units="px" />
  <metadata
     id="metadata5">
    <rdf:RDF>
      <cc:Work
         rdf:about="">
        <dc:format>image/svg+xml</dc:format>
        <dc:type
           rdf:resource="http://purl.org/dc/dcmitype/StillImage" />
        <dc:title></dc:title>
      </cc:Work>
    </rdf:RDF>
  </metadata>
  <g
     inkscape:label="Layer 1"
     inkscape:groupmode="layer"
     id="layer1"
     transform="translate(0,-284.3)">
    <text
       xml:space="preserve"
       style="font-style:normal;font-variant:normal;font-weight:normal;font-stretch:normal;font-size:4.23333311px;line-height:6.61458302px;font-family:Ashbury;-inkscape-font-specification:Ashbury;letter-spacing:0px;word-spacing:0px;fill:#000000;fill-opacity:1;stroke:none;stroke-width:0.26458332px;stroke-linecap:butt;stroke-linejoin:miter;stroke-opacity:1"
       x="6.9925594"
       y="280.55804"
       id="text4487"><tspan
         sodipodi:role="line"
         id="tspan4485"
         x="6.9925594"
         y="285.40472"
         style="stroke-width:0.26458332px" /></text>
    <g
       id="g4515"
       transform="matrix(0.26458333,0,0,0.26458333,-113.15433,196.79148)" />
    <g
       id="g4517"
       transform="matrix(0.26458333,0,0,0.26458333,-113.15433,196.79148)" />
    <g
       id="g4519"
       transform="matrix(0.26458333,0,0,0.26458333,-113.15433,196.79148)" />
    <g
       id="g4521"
       transform="matrix(0.26458333,0,0,0.26458333,-113.15433,196.79148)" />
    <g
       id="g4523"
       transform="matrix(0.26458333,0,0,0.26458333,-113.15433,196.79148)" />
    <g
       id="g4525"
       transform="matrix(0.26458333,0,0,0.26458333,-113.15433,196.79148)" />
    <g
       id="g4527"
       transform="matrix(0.26458333,0,0,0.26458333,-113.15433,196.79148)" />
    <g
       id="g4529"
       transform="matrix(0.26458333,0,0,0.26458333,-113.15433,196.79148)" />
    <g
       id="g4531"
       transform="matrix(0.26458333,0,0,0.26458333,-113.15433,196.79148)" />
    <g
       id="g4533"
       transform="matrix(0.26458333,0,0,0.26458333,-113.15433,196.79148)" />
    <g
       id="g4535"
       transform="matrix(0.26458333,0,0,0.26458333,-113.15433,196.79148)" />
    <g
       id="g4537"
       transform="matrix(0.26458333,0,0,0.26458333,-113.15433,196.79148)" />
    <g
       id="g4539"
       transform="matrix(0.26458333,0,0,0.26458333,-113.15433,196.79148)" />
    <g
       id="g4541"
       transform="matrix(0.26458333,0,0,0.26458333,-113.15433,196.79148)" />
    <g
       id="g4543"
       transform="matrix(0.26458333,0,0,0.26458333,-113.15433,196.79148)" />
    <g
       id="g4512"
       transform="matrix(0.40569441,0,0,0.40569443,-0.14111108,176.64986)"
       style="fill:#eeeeee;fill-opacity:1">
      <g
         style="fill:#eeeeee;fill-opacity:1"
         transform="matrix(0.049735,0,0,0.04973508,1,266)"
         id="g4511">
        <path
           style="fill:#eeeeee;fill-opacity:1"
           inkscape:connector-curvature="0"
           d="M 514.508,88.689 C 486.869,61.05 454.673,39.346 418.814,24.179 381.664,8.467 342.229,0.5 301.599,0.5 260.97,0.5 221.534,8.467 184.385,24.179 148.525,39.346 116.329,61.051 88.69,88.689 61.051,116.327 39.347,148.524 24.179,184.384 8.466,221.533 0.5,260.969 0.5,301.598 c 0,40.629 7.967,80.066 23.68,117.214 15.167,35.859 36.871,68.056 64.51,95.694 27.638,27.638 59.835,49.343 95.695,64.51 37.148,15.713 76.585,23.68 117.214,23.68 40.628,0 80.065,-7.967 117.213,-23.68 35.86,-15.167 68.057,-36.872 95.695,-64.51 27.639,-27.639 49.343,-59.835 64.51,-95.694 15.713,-37.148 23.68,-76.585 23.68,-117.214 0,-40.629 -7.968,-80.065 -23.68,-117.214 -15.166,-35.859 -36.871,-68.056 -64.509,-95.695 z M 301.599,559.856 C 158.966,559.856 43.341,444.23 43.341,301.598 43.341,158.966 158.966,43.34 301.599,43.34 c 142.633,0 258.259,115.626 258.259,258.258 -10e-4,142.632 -115.627,258.258 -258.259,258.258 z"
           id="path4507" />
        <path
           style="fill:#eeeeee;fill-opacity:1"
           inkscape:connector-curvature="0"
           d="m 301.598,603.196 c -40.697,0 -80.199,-7.98 -117.409,-23.719 C 148.271,564.285 116.021,542.544 88.335,514.86 60.651,487.175 38.911,454.926 23.718,419.006 7.98,381.796 0,342.294 0,301.598 0,260.9 7.98,221.398 23.719,184.189 38.912,148.27 60.653,116.02 88.337,88.335 116.021,60.65 148.271,38.91 184.191,23.718 221.4,7.98 260.902,0 301.599,0 c 40.697,0 80.198,7.98 117.409,23.719 35.92,15.193 68.17,36.933 95.854,64.617 27.685,27.685 49.425,59.935 64.616,95.854 15.738,37.212 23.719,76.714 23.719,117.409 0,40.697 -7.98,80.2 -23.719,117.409 -15.192,35.92 -36.933,68.169 -64.617,95.854 -27.687,27.686 -59.937,49.426 -95.854,64.617 -37.21,15.737 -76.712,23.717 -117.409,23.717 z M 301.599,1 C 261.037,1 221.666,8.954 184.58,24.64 148.78,39.782 116.637,61.451 89.044,89.043 61.451,116.635 39.783,148.779 24.64,184.579 8.954,221.664 1,261.035 1,301.598 c 0,40.561 7.954,79.932 23.64,117.02 15.142,35.8 36.81,67.942 64.403,95.535 27.594,27.593 59.736,49.262 95.536,64.402 37.086,15.687 76.457,23.641 117.019,23.641 40.562,0 79.932,-7.954 117.019,-23.641 35.799,-15.141 67.941,-36.809 95.536,-64.402 27.593,-27.593 49.261,-59.735 64.402,-95.535 15.687,-37.086 23.641,-76.457 23.641,-117.02 0,-40.56 -7.954,-79.931 -23.641,-117.019 -15.141,-35.8 -36.809,-67.943 -64.401,-95.536 C 486.561,61.451 454.419,39.782 418.619,24.64 381.531,8.954 342.16,1 301.599,1 Z m 0,559.356 c -69.117,0 -134.097,-26.916 -182.97,-75.788 C 69.756,435.695 42.84,370.715 42.84,301.598 c 0,-69.117 26.916,-134.097 75.788,-182.97 48.873,-48.873 113.853,-75.789 182.97,-75.789 69.117,0 134.098,26.916 182.971,75.789 48.873,48.873 75.788,113.853 75.788,182.97 0,69.117 -26.915,134.097 -75.788,182.97 -48.873,48.872 -113.853,75.788 -182.97,75.788 z m 0,-516.516 c -68.85,0 -133.579,26.812 -182.263,75.496 C 70.652,168.02 43.84,232.749 43.84,301.598 c 0,68.85 26.812,133.579 75.495,182.262 48.684,48.685 113.413,75.496 182.263,75.496 68.85,0 133.579,-26.812 182.263,-75.496 48.685,-48.684 75.496,-113.412 75.496,-182.262 0,-68.85 -26.812,-133.579 -75.496,-182.263 C 435.178,70.651 370.448,43.84 301.599,43.84 Z"
           id="path4509" />
      </g>
      <g
         transform="translate(2.0945936e-4,-0.52916138)"
         id="g4509"
         style="fill:#eeeeee;fill-opacity:1">
        <path
           style="opacity:1;fill:#eeeeee;fill-opacity:1;stroke:none;stroke-width:0.0139261;stroke-linecap:round;stroke-linejoin:round;stroke-miterlimit:4;stroke-dasharray:none;stroke-opacity:1;paint-order:normal"
           d="m 15.216074,291.47497 c -0.270265,-0.0885 -0.499918,-0.27761 -0.636488,-0.52418 l -0.117605,-0.21233 -0.0123,-6.11816 c -0.01353,-6.72998 -0.02965,-6.33649 0.273457,-6.67554 0.07827,-0.0875 0.264116,-0.21415 0.412985,-0.28132 0.25054,-0.11305 0.31283,-0.12217 0.837558,-0.12256 0.714393,-5.3e-4 0.918263,0.0633 1.240655,0.38858 0.125714,0.12683 0.254073,0.30907 0.285239,0.40499 0.04289,0.13201 0.05655,1.64969 0.05621,6.24565 l -4.77e-4,6.07125 -0.110829,0.21945 c -0.131955,0.26128 -0.471627,0.55104 -0.729455,0.62226 -0.260841,0.072 -1.260453,0.06 -1.498965,-0.0181 z"
           id="path4613"
           inkscape:connector-curvature="0" />
        <path
           style="opacity:1;fill:#eeeeee;fill-opacity:1;stroke:none;stroke-width:0.01450484;stroke-linecap:round;stroke-linejoin:round;stroke-miterlimit:4;stroke-dasharray:none;stroke-opacity:1;paint-order:normal"
           d="m 15.548665,274.54514 c -0.655074,-0.20717 -1.056123,-0.72521 -1.09903,-1.41961 -0.02869,-0.46437 0.104848,-0.80995 0.444076,-1.14918 0.354541,-0.35454 0.602765,-0.45773 1.1038,-0.45888 0.48516,-10e-4 0.738179,0.10392 1.084432,0.45018 0.310451,0.31045 0.444946,0.60293 0.466077,1.01356 0.0545,1.05904 -0.996443,1.88111 -1.999355,1.56393 z"
           id="path4615"
           inkscape:connector-curvature="0" />
      </g>
    </g>
  </g>
</svg>
