<?xml version="1.0" encoding="UTF-8" standalone="no"?>
<!-- Generator: Adobe Illustrator 18.0.0, SVG Export Plug-In . SVG Version: 6.00 Build 0)  -->

<svg
   xmlns:ns2="http://ns.adobe.com/AdobeIllustrator/10.0/"
   xmlns:dc="http://purl.org/dc/elements/1.1/"
   xmlns:cc="http://creativecommons.org/ns#"
   xmlns:rdf="http://www.w3.org/1999/02/22-rdf-syntax-ns#"
   xmlns:svg="http://www.w3.org/2000/svg"
   xmlns="http://www.w3.org/2000/svg"
   xmlns:sodipodi="http://sodipodi.sourceforge.net/DTD/sodipodi-0.dtd"
   xmlns:inkscape="http://www.inkscape.org/namespaces/inkscape"
   version="1.1"
   id="图层_1"
   x="0px"
   y="0px"
   viewBox="0 0 300 128"
   xml:space="preserve"
   sodipodi:docname="pardus.svg"
   inkscape:version="0.92.1 r15371"
   width="300"
   height="128"><metadata
     id="metadata31"><rdf:RDF><cc:Work
         rdf:about=""><dc:format>image/svg+xml</dc:format><dc:type
           rdf:resource="http://purl.org/dc/dcmitype/StillImage" /><dc:title /></cc:Work></rdf:RDF></metadata><defs
     id="defs29" /><sodipodi:namedview
     pagecolor="#ffffff"
     bordercolor="#666666"
     borderopacity="1"
     objecttolerance="10"
     gridtolerance="10"
     guidetolerance="10"
     inkscape:pageopacity="0"
     inkscape:pageshadow="2"
     inkscape:window-width="1920"
     inkscape:window-height="1138"
     id="namedview27"
     showgrid="false"
     inkscape:zoom="2.4583334"
     inkscape:cx="40.099985"
     inkscape:cy="74.810332"
     inkscape:window-x="1920"
     inkscape:window-y="0"
     inkscape:window-maximized="1"
     inkscape:current-layer="图层_1" /><rect
     style="opacity:0;fill:#ffffff;fill-opacity:1;stroke:none;stroke-width:0.75"
     id="rect3861"
     width="48"
     height="48"
     x="0"
     y="79.999977" /><g
     style="overflow:visible"
     id="g926"
     transform="matrix(0.97692307,0,0,0.97692395,6.5000048,0.65755757)"><g
       transform="matrix(0.66006943,0,0,0.66006943,-131.69912,-108.95751)"
       id="g5080"><g
         id="g5082"><polygon
           style="fill:#fff7d6"
           ns2:knockout="Off"
           points="225.85,234.284 248.776,190.457 218.433,178.322 202.927,198.549 "
           id="polygon5084" /><polygon
           style="fill:#fff7d6"
           ns2:knockout="Off"
           points="370.148,234.284 347.224,190.457 377.565,178.322 393.074,198.549 "
           id="polygon5086" /></g><path
         inkscape:connector-curvature="0"
         style="fill:#fff5c8"
         ns2:knockout="Off"
         d="m 368.017,244.885 -23.586,-44.892 c -0.878,-1.659 -3.599,-3.787 -5.402,-4.216 l -0.438,-0.108 -35.484,-8.445 c -2.448,-0.585 -6.917,-0.595 -9.37,-0.019 l -36.329,8.495 -0.452,0.106 c -1.797,0.419 -4.509,2.531 -5.381,4.186 l -23.587,44.892 -3.266,6.206 c -1.033,1.968 -1.667,5.922 -1.299,8.123 l 6.554,39.393 c 0.222,1.341 1.824,3.1 3.118,3.427 l 17.847,4.505 c -0.439,-1.754 3.608,-3.582 3.602,-5.313 l 9.087,-19.809 c 0.006,0.343 -0.024,0.697 -0.092,1.048 l -3.407,17.627 c -0.37,1.926 0.375,5.379 1.5,6.975 l 1.886,2.656 8.866,12.51 13.018,18.384 c 0.999,1.405 3.752,2.841 5.459,2.841 h 14.282 c 1.706,0 4.458,-1.436 5.452,-2.841 l 12.898,-18.204 8.898,-12.556 1.974,-2.79 c 1.128,-1.596 1.871,-5.049 1.5,-6.975 l -3.405,-17.627 c -0.062,-0.351 -0.095,-0.705 -0.09,-1.042 l 9.086,19.807 c -0.003,1.752 4.036,3.605 3.587,5.392 l 17.854,-4.572 c 1.296,-0.331 2.902,-2.098 3.123,-3.443 l 6.557,-39.393 c 0.371,-2.201 -0.262,-6.155 -1.298,-8.123 z"
         id="path5088" /><path
         inkscape:connector-curvature="0"
         ns2:knockout="Off"
         d="m 396.358,195.215 c -0.938,-2.797 -3.888,-7.817 -6.536,-11.158 -2.654,-3.345 -6.974,-7.304 -9.598,-8.798 -2.626,-1.5 -14.631,1.781 -20.703,4.558 l -4.432,2.023 c -6.072,2.779 -11.125,5.093 -11.227,5.141 -0.099,0.052 -0.813,0 -1.367,-0.229 -0.556,-0.239 -7.312,-1.902 -13.817,-3.423 l -11.646,-2.721 c -6.507,-1.521 -14.006,-2.97 -16.67,-3.221 -2.666,-0.253 -14.035,1.651 -20.54,3.144 l -12.467,2.865 c -6.509,1.492 -12.287,2.85 -12.833,3.016 -0.552,0.162 -2.088,0.722 -2.192,0.666 -0.103,-0.059 -5.351,-2.46 -11.421,-5.239 l -4.427,-2.023 c -6.077,-2.777 -13.571,-5.233 -16.659,-5.46 -3.088,-0.227 -10.992,6.355 -13.643,9.7 -2.658,3.34 -5.6,8.365 -6.543,11.161 -0.943,2.797 4.172,13.816 7.91,19.351 l 7.64,11.332 c 3.732,5.535 5.79,11.934 4.564,14.215 -1.223,2.29 -2.895,6.357 -3.719,9.042 -0.825,2.69 0.128,14.482 1.241,21.067 l 2.387,14.055 c 1.115,6.584 3.21,14.174 4.654,16.867 1.448,2.695 12.901,7.452 19.386,9.058 l 2.901,0.719 c 6.478,1.607 14.979,7.355 18.884,12.771 l 5.237,7.246 c 3.903,5.418 8.998,11.364 11.32,13.216 2.313,1.851 12.101,3.366 15.958,3.366 3.864,0 9.354,-0.652 12.213,-1.448 2.856,-0.795 11.16,-9.715 15.063,-15.134 l 5.151,-7.133 c 3.907,-5.411 12.399,-11.174 18.879,-12.801 l 3.02,-0.759 c 6.476,-1.627 13.882,-4.306 16.453,-5.953 2.573,-1.649 6.447,-13.432 7.565,-20.016 l 2.382,-14.052 c 1.112,-6.588 1.964,-14.271 1.892,-17.086 -0.071,-2.808 -3.145,-10.736 -4.37,-13.026 -1.222,-2.282 0.834,-8.68 4.565,-14.215 l 7.64,-11.332 c 3.734,-5.533 8.849,-16.552 7.905,-19.352 z m -181.589,12.866 c -3.323,-4.922 -6.179,-9.319 -6.353,-9.762 0,0 0,0 0,-0.51 0,-0.639 0,-0.639 0,-0.639 0.255,-0.583 2.639,-3.791 5.291,-7.134 2.658,-3.34 5.254,-6.277 5.773,-6.53 0.517,-0.25 6.929,2.284 13.002,5.055 l 0.949,0.436 c 6.073,2.776 10.953,5.188 10.846,5.361 -0.109,0.173 -2.948,5.445 -6.098,11.336 l -5.341,9.979 c -3.15,5.89 -14.747,-2.665 -18.069,-7.592 z m 156.37,45.603 c 0.073,1.628 -0.783,8.35 -1.896,14.937 l -2.387,14.056 c -1.113,6.581 -2.428,12.647 -2.928,13.472 -0.488,0.824 -6.113,2.809 -10.937,4.022 -4.83,1.213 -8.618,1.412 -8.433,0.45 0.185,-0.969 -2.613,-7.749 -6.221,-13.004 -3.614,-5.251 -6.566,-9.398 -6.561,-9.215 0.005,0.182 0.828,4.496 1.752,9.17 0.921,4.68 1.592,9.675 1.493,11.102 -0.102,1.428 -1.731,4.734 -2.262,5.476 -0.536,0.741 -2.938,4.071 -5.345,7.399 -2.408,3.33 -7.219,10.008 -10.706,14.836 -3.482,4.826 -7.161,9.399 -8.177,10.151 -1.015,0.751 -6.67,1.371 -10.534,1.371 -3.856,0 -8.001,-0.313 -9.207,-0.696 -1.2,-0.381 -6.05,-6.036 -9.567,-10.911 -3.519,-4.876 -8.358,-11.581 -10.75,-14.9 -2.397,-3.319 -4.767,-6.608 -5.282,-7.314 -0.504,-0.705 -1.336,-2.379 -1.842,-3.716 -0.503,-1.34 0.203,-8.118 1.121,-12.798 0.922,-4.674 1.695,-8.65 1.721,-8.839 0.027,-0.187 -2.911,3.632 -6.524,8.885 -3.614,5.256 -6.513,10.325 -6.448,11.268 0.062,0.944 -3.401,2.434 -8.221,1.237 -4.819,-1.195 -9.405,-2.629 -10.187,-3.18 -0.781,-0.551 -2.555,-7.684 -3.673,-14.265 l -2.381,-14.056 c -1.116,-6.587 -1.969,-13.309 -1.897,-14.937 0.073,-1.635 1.867,-6.222 2.751,-7.865 0.878,-1.646 4.181,-7.813 7.332,-13.701 l 11.715,-21.889 c 3.149,-5.885 6.519,-11.518 7.488,-12.521 0.97,-1 3.629,-2.245 3.751,-2.273 0.126,-0.028 5.547,-1.275 12.057,-2.766 l 12.024,-2.763 c 6.504,-1.495 13.361,-2.839 15.231,-2.989 1.871,-0.149 11.127,1.537 17.633,3.056 l 11.214,2.619 c 6.504,1.521 11.923,2.789 12.04,2.819 0.119,0.025 1.217,0.603 2.438,1.28 1.223,0.678 5.658,7.651 8.809,13.537 l 11.716,21.889 c 3.148,5.887 6.453,12.054 7.332,13.701 0.882,1.643 2.68,6.23 2.748,7.865 z m 16.446,-55.365 c -0.174,0.443 -3.037,4.84 -6.355,9.762 -3.318,4.927 -14.915,13.482 -18.063,7.592 l -5.345,-9.979 c -3.155,-5.891 -5.811,-10.85 -5.908,-11.023 -0.103,-0.172 4.585,-2.898 10.658,-5.674 l 0.945,-0.436 c 6.07,-2.771 11.605,-5.055 12.296,-5.076 0.691,-0.015 3.824,3.211 6.479,6.551 2.648,3.343 5.036,6.551 5.293,7.134 0,0 0,0 0,0.639 0,0.51 0,0.51 0,0.51 z"
         id="path5090" /><path
         inkscape:connector-curvature="0"
         ns2:knockout="Off"
         d="m 281.029,287.938 c -1.433,-2.87 0.016,-5.225 3.231,-5.225 h 27.478 c 3.21,0 4.663,2.355 3.232,5.225 l -14.36,16.325 c -1.437,2.872 -3.78,2.872 -5.221,0 z"
         id="path5092" /><path
         inkscape:connector-curvature="0"
         ns2:knockout="Off"
         d="m 297.999,322.948 c 0.004,0 1.94,1.775 4.313,3.943 l 9.331,8.528 c 2.377,2.163 4.97,2.38 5.764,0.473 0.795,-1.906 -0.721,-4.942 -3.376,-6.753 l -8.838,-6.028 c -2.654,-1.811 -4.819,-3.351 -4.809,-3.423 0.008,-0.068 0.02,-2.896 0.02,-6.109 v -16.461 c 0,-3.213 -0.484,-6.925 -1.077,-8.247 0,0 0,0 -1.328,0 -1.326,0 -1.326,0 -1.326,0 -0.593,1.322 -1.077,5.033 -1.077,8.247 v 16.461 c 0,3.213 0.006,5.903 0.009,5.979 0.007,0.07 -2.142,1.742 -4.798,3.553 l -8.838,6.028 c -2.653,1.811 -4.176,4.847 -3.377,6.753 0.8,1.908 3.387,1.69 5.763,-0.473 l 9.333,-8.528 c 2.373,-2.168 4.311,-3.943 4.311,-3.943 z"
         id="path5094" /><g
         id="g5096"><path
           inkscape:connector-curvature="0"
           ns2:knockout="Off"
           d="m 246.885,244.751 c -3.453,0.1 -3.48,0.578 -0.063,1.067 l 28.657,4.092 c 3.413,0.489 5.948,3.696 5.627,7.127 l -3.658,12.79 c -0.309,3.431 0.762,6.337 2.396,6.457 1.634,0.12 2.98,0.104 2.99,-0.036 0.005,-0.137 0.14,-3.068 0.284,-6.513 l 2.993,-12.004 c 0.15,-3.446 0.345,-8.027 0.438,-10.181 0.099,-2.154 -0.813,-3.892 -2.019,-3.856 -1.206,0.035 -5.015,0.139 -8.463,0.237 z"
           id="path5098" /><path
           inkscape:connector-curvature="0"
           ns2:knockout="Off"
           d="m 319.935,243.932 c -3.449,-0.098 -7.259,-0.202 -8.458,-0.237 -1.212,-0.036 -2.124,1.702 -2.032,3.856 0.093,2.154 0.294,6.735 0.442,10.181 l 2.99,12.004 c 0.15,3.444 0.279,6.375 0.295,6.513 0.006,0.14 1.35,0.155 2.983,0.036 1.635,-0.119 2.71,-3.025 2.39,-6.457 l -3.652,-12.79 c -0.317,-3.431 2.216,-6.638 5.627,-7.127 l 28.657,-4.092 c 3.411,-0.489 3.391,-0.967 -0.062,-1.067 z"
           id="path5100" /></g><g
         id="g5102"><circle
           ns2:knockout="Off"
           cx="268.66599"
           cy="249.082"
           r="3.974"
           id="circle5104" /><path
           inkscape:connector-curvature="0"
           ns2:knockout="Off"
           d="m 331.314,249.082 c 0,2.199 -1.786,3.978 -3.979,3.978 -2.202,0 -3.98,-1.779 -3.98,-3.978 0,-2.195 1.778,-3.974 3.98,-3.974 2.193,-0.001 3.979,1.779 3.979,3.974 z"
           id="path5106" /></g><g
         id="g5108"><g
           id="g5111"><g
             ns2:knockout="Off"
             id="g5113"><g
               id="g5115"><path
                 inkscape:connector-curvature="0"
                 style="fill:none"
                 ns2:knockout="Off"
                 d="m 282.442,299.431 c -22.72,6.003 -41.634,16.871 -60.114,31.306"
                 id="path5117" /><path
                 inkscape:connector-curvature="0"
                 ns2:knockout="Off"
                 d="m 282.2,298.054 c -21.88,5.292 -43.854,16.737 -60.637,31.78 -1.164,1.042 0.289,2.639 1.532,1.807 9.16,-6.125 17.966,-12.6 27.651,-17.915 10.139,-5.564 20.881,-9.605 31.939,-12.917 1.686,-0.505 1.297,-3.186 -0.485,-2.755 z"
                 id="path5119" /></g></g><g
             ns2:knockout="Off"
             id="g5121"><g
               id="g5123"><path
                 inkscape:connector-curvature="0"
                 style="fill:none"
                 ns2:knockout="Off"
                 d="m 282.968,306.988 c -16.705,1.636 -33.563,20.751 -43.912,33.257"
                 id="path5125" /><path
                 inkscape:connector-curvature="0"
                 ns2:knockout="Off"
                 d="m 282.77,305.868 c -9.444,0.723 -17.431,6.122 -24.537,12.016 -7.479,6.204 -14.603,13.695 -20.01,21.778 -0.624,0.933 0.641,2.192 1.491,1.359 12.808,-12.552 24.483,-29.631 43.451,-32.913 1.472,-0.254 1.04,-2.351 -0.395,-2.24 z"
                 id="path5127" /></g></g><g
             ns2:knockout="Off"
             id="g5129"><g
               id="g5131"><path
                 inkscape:connector-curvature="0"
                 style="fill:none"
                 ns2:knockout="Off"
                 d="m 284.562,314.588 c -16.175,4.496 -29.483,26.229 -37.521,40.328"
                 id="path5133" /><path
                 inkscape:connector-curvature="0"
                 ns2:knockout="Off"
                 d="m 284.364,313.467 c -8.867,2.251 -15.541,8.416 -21.442,15.134 -6.738,7.671 -12.65,16.651 -16.835,25.961 -0.484,1.078 1.134,1.858 1.787,0.937 10.368,-14.624 19.083,-33.416 37.176,-39.883 1.208,-0.432 0.551,-2.463 -0.686,-2.149 z"
                 id="path5135" /></g></g></g><g
           id="g5137"><g
             ns2:knockout="Off"
             id="g5139"><g
               id="g5141"><path
                 inkscape:connector-curvature="0"
                 style="fill:none"
                 ns2:knockout="Off"
                 d="m 313.56,299.431 c 22.718,6.003 41.628,16.871 60.104,31.306"
                 id="path5143" /><path
                 inkscape:connector-curvature="0"
                 ns2:knockout="Off"
                 d="m 313.074,300.743 c 11.08,3.32 21.741,7.38 31.951,12.85 9.841,5.271 18.705,11.93 27.959,18.114 1.305,0.872 2.469,-0.947 1.359,-1.94 -16.666,-14.924 -38.57,-26.389 -60.299,-31.647 -1.712,-0.415 -2.727,2.097 -0.97,2.623 z"
                 id="path5145" /></g></g><g
             ns2:knockout="Off"
             id="g5147"><g
               id="g5149"><path
                 inkscape:connector-curvature="0"
                 style="fill:none"
                 ns2:knockout="Off"
                 d="m 313.03,306.988 c 16.707,1.636 33.564,20.751 43.913,33.257"
                 id="path5151" /><path
                 inkscape:connector-curvature="0"
                 ns2:knockout="Off"
                 d="m 312.923,308.121 c 18.863,3.261 30.51,20.297 43.245,32.782 0.946,0.928 2.279,-0.229 1.551,-1.316 -5.477,-8.176 -12.608,-15.396 -20.064,-21.789 -6.961,-5.969 -15.178,-11.229 -24.517,-11.942 -1.482,-0.114 -1.644,2.018 -0.215,2.265 z"
                 id="path5153" /></g></g><g
             ns2:knockout="Off"
             id="g5155"><g
               id="g5157"><path
                 inkscape:connector-curvature="0"
                 style="fill:none"
                 ns2:knockout="Off"
                 d="m 311.435,314.588 c 16.172,4.496 29.49,26.229 37.524,40.328"
                 id="path5159" /><path
                 inkscape:connector-curvature="0"
                 ns2:knockout="Off"
                 d="m 311.04,315.655 c 18.046,6.457 26.813,25.33 37.144,39.919 0.686,0.968 2.152,-0.075 1.694,-1.095 -4.017,-8.945 -9.716,-17.315 -15.94,-24.875 -5.824,-7.073 -13.024,-13.776 -22.108,-16.083 -1.392,-0.354 -2.199,1.63 -0.79,2.134 z"
                 id="path5161" /></g></g></g></g><g
         id="g5163"><g
           id="g5165"><ellipse
             ns2:knockout="Off"
             cx="260.37"
             cy="205.96201"
             rx="6.4250002"
             ry="8.0299997"
             id="ellipse5167" /><path
             inkscape:connector-curvature="0"
             ns2:knockout="Off"
             d="m 258.13,221.388 c 0,2.959 -2.396,5.353 -5.349,5.353 -2.959,0 -5.355,-2.394 -5.355,-5.353 0,-2.956 2.396,-5.353 5.355,-5.353 2.953,0.001 5.349,2.397 5.349,5.353 z"
             id="path5169" /><path
             inkscape:connector-curvature="0"
             ns2:knockout="Off"
             d="m 282.519,203.942 c -1.077,3.381 -3.318,5.69 -5.011,5.152 -1.688,-0.539 -2.19,-3.713 -1.111,-7.096 1.072,-3.382 3.314,-5.688 5.003,-5.148 1.691,0.537 2.191,3.716 1.119,7.092 z"
             id="path5171" /><path
             inkscape:connector-curvature="0"
             ns2:knockout="Off"
             d="m 274.432,223.038 c 0,1.778 -1.674,3.214 -3.748,3.214 -2.069,0 -3.746,-1.436 -3.746,-3.214 0,-1.774 1.676,-3.211 3.746,-3.211 2.074,0 3.748,1.437 3.748,3.211 z"
             id="path5173" /></g><g
           id="g5175"><path
             inkscape:connector-curvature="0"
             ns2:knockout="Off"
             d="m 353.42,284.343 c -1.319,2.646 -0.248,5.858 2.4,7.178 2.646,1.321 5.86,0.247 7.179,-2.398 1.32,-2.649 0.242,-5.866 -2.401,-7.179 -2.643,-1.325 -5.859,-0.248 -7.178,2.399 z"
             id="path5177" /><path
             inkscape:connector-curvature="0"
             ns2:knockout="Off"
             d="m 354.672,270.667 c -0.546,3.506 0.429,6.572 2.179,6.845 1.759,0.272 3.618,-2.346 4.172,-5.85 0.546,-3.506 -0.429,-6.571 -2.188,-6.842 -1.748,-0.276 -3.616,2.342 -4.163,5.847 z"
             id="path5179" /><path
             inkscape:connector-curvature="0"
             ns2:knockout="Off"
             d="m 344.822,278.809 c -0.794,1.588 0.067,3.625 1.917,4.547 1.854,0.925 4,0.387 4.787,-1.2 0.796,-1.588 -0.066,-3.624 -1.916,-4.546 -1.851,-0.926 -3.999,-0.387 -4.788,1.199 z"
             id="path5181" /></g></g></g></g><g
     style="fill:#ffcb08;fill-opacity:1"
     transform="matrix(0.70734031,0,0,0.70734031,3.1793954,-3.7449465)"
     id="g5912"
     ns2:knockout="Off"><path
       style="fill:#ffcb08;fill-opacity:1"
       id="path5914"
       d="m 221.564,104.984 c 0,3.405 -1.196,6.301 -3.584,8.689 -2.389,2.388 -5.284,3.582 -8.688,3.582 h -2.527 c -1.684,0 -2.527,0.82 -2.527,2.457 v 9.832 c 0,1.376 -0.475,2.54 -1.422,3.491 -0.949,0.951 -2.11,1.425 -3.485,1.425 h -2.455 c -1.377,0 -2.538,-0.476 -3.487,-1.431 -0.949,-0.955 -1.421,-2.123 -1.421,-3.507 v -56.78 c 0,-3.402 1.201,-6.3 3.612,-8.688 2.408,-2.389 5.331,-3.583 8.761,-3.583 h 4.951 c 3.403,0 6.299,1.195 8.688,3.583 2.388,2.389 3.584,5.286 3.584,8.688 z m -12.337,-2.581 V 75.281 c 0,-1.644 -0.832,-2.467 -2.493,-2.467 -1.665,0 -2.496,0.824 -2.496,2.467 v 27.123 c 0,1.646 0.831,2.468 2.496,2.468 1.661,-0.001 2.493,-0.823 2.493,-2.469 z"
       ns2:knockout="Off"
       inkscape:connector-curvature="0" /><path
       style="fill:#ffcb08;fill-opacity:1"
       id="path5916"
       d="m 258.057,122.188 c 0,3.405 -1.196,6.303 -3.583,8.689 -2.39,2.389 -5.285,3.583 -8.688,3.583 h -5.053 c -3.404,0 -6.3,-1.193 -8.688,-3.583 -2.389,-2.387 -3.583,-5.285 -3.583,-8.689 v -4.933 c 0,-3.403 1.193,-6.299 3.583,-8.688 2.388,-2.387 5.284,-3.583 8.688,-3.583 h 2.495 c 1.661,0 2.495,-0.826 2.495,-2.479 V 75.222 c 0,-1.653 -0.82,-2.479 -2.465,-2.479 -1.646,0 -2.466,0.825 -2.466,2.471 v 19.78 c 0,1.385 -0.479,2.557 -1.429,3.512 -0.958,0.956 -2.124,1.435 -3.504,1.435 h -2.463 c -1.381,0 -2.549,-0.477 -3.502,-1.432 -0.956,-0.953 -1.43,-2.12 -1.43,-3.503 V 72.804 c 0,-3.419 1.193,-6.33 3.583,-8.73 2.388,-2.401 5.284,-3.603 8.688,-3.603 h 5.053 c 3.404,0 6.299,1.204 8.688,3.605 2.388,2.403 3.583,5.317 3.583,8.738 v 49.374 z m -12.335,-2.525 c 0,-1.643 -0.82,-2.463 -2.465,-2.463 -1.646,0 -2.466,0.821 -2.466,2.463 0,1.646 0.82,2.468 2.466,2.468 1.644,0 2.465,-0.822 2.465,-2.468 z"
       ns2:knockout="Off"
       inkscape:connector-curvature="0" /><path
       style="fill:#ffcb08;fill-opacity:1"
       id="path5918"
       d="m 294.549,95.005 c 0,1.383 -0.476,2.55 -1.423,3.503 -0.948,0.955 -2.11,1.432 -3.484,1.432 h -2.455 c -1.376,0 -2.537,-0.479 -3.486,-1.435 -0.949,-0.955 -1.422,-2.127 -1.422,-3.512 v -19.78 c 0,-1.646 -0.843,-2.471 -2.527,-2.471 -1.683,0 -2.527,0.823 -2.527,2.469 v 54.311 c 0,1.384 -0.475,2.552 -1.423,3.507 -0.948,0.955 -2.11,1.431 -3.483,1.431 h -2.456 c -1.376,0 -2.538,-0.476 -3.484,-1.431 -0.949,-0.953 -1.424,-2.12 -1.424,-3.502 V 72.802 c 0,-3.42 1.199,-6.33 3.6,-8.729 2.401,-2.401 5.31,-3.603 8.732,-3.603 h 4.932 c 3.421,0 6.329,1.202 8.73,3.603 2.401,2.401 3.601,5.312 3.601,8.73 v 22.202 z"
       ns2:knockout="Off"
       inkscape:connector-curvature="0" /><path
       style="fill:#ffcb08;fill-opacity:1"
       id="path5920"
       d="m 331.043,122.188 c 0,3.405 -1.194,6.303 -3.58,8.689 -2.393,2.389 -5.289,3.583 -8.69,3.583 h -12.374 c -1.388,0 -2.559,-0.476 -3.518,-1.431 -0.956,-0.953 -1.434,-2.12 -1.434,-3.502 V 65.403 c 0,-1.379 0.478,-2.546 1.434,-3.501 0.959,-0.954 2.13,-1.431 3.518,-1.431 h 12.374 c 3.401,0 6.298,1.195 8.69,3.583 2.386,2.389 3.58,5.286 3.58,8.688 z m -12.335,-2.525 V 75.281 c 0,-1.644 -0.833,-2.467 -2.495,-2.467 -1.664,0 -2.494,0.824 -2.494,2.467 v 44.382 c 0,1.646 0.83,2.468 2.494,2.468 1.662,0 2.495,-0.822 2.495,-2.468 z"
       ns2:knockout="Off"
       inkscape:connector-curvature="0" /><path
       style="fill:#ffcb08;fill-opacity:1"
       id="path5922"
       d="m 367.537,122.188 c 0,3.405 -1.196,6.303 -3.584,8.689 -2.388,2.389 -5.286,3.583 -8.687,3.583 h -5.054 c -3.406,0 -6.302,-1.193 -8.689,-3.583 -2.388,-2.387 -3.584,-5.285 -3.584,-8.689 v -56.78 c 0,-1.383 0.479,-2.551 1.432,-3.506 0.953,-0.955 2.12,-1.432 3.502,-1.432 h 2.467 c 1.379,0 2.548,0.477 3.499,1.431 0.955,0.956 1.432,2.122 1.432,3.501 v 54.26 c 0,1.646 0.822,2.468 2.467,2.468 1.643,0 2.466,-0.822 2.466,-2.468 v -54.26 c 0,-1.379 0.475,-2.546 1.43,-3.501 0.954,-0.954 2.122,-1.431 3.505,-1.431 h 2.464 c 1.382,0 2.55,0.477 3.505,1.432 0.954,0.955 1.431,2.123 1.431,3.506 v 56.78 z"
       ns2:knockout="Off"
       inkscape:connector-curvature="0" /><path
       style="fill:#ffcb08;fill-opacity:1"
       id="path5924"
       d="m 404.03,122.188 c 0,3.405 -1.195,6.303 -3.583,8.689 -2.389,2.389 -5.285,3.583 -8.688,3.583 h -12.373 c -1.389,0 -2.56,-0.476 -3.517,-1.431 -0.958,-0.953 -1.435,-2.12 -1.435,-3.502 v -2.464 c 0,-1.379 0.475,-2.547 1.432,-3.501 0.953,-0.954 2.12,-1.43 3.501,-1.43 h 9.862 c 1.641,0 2.467,-0.813 2.467,-2.44 0,-1.623 -0.833,-2.436 -2.494,-2.436 h -2.495 c -3.405,0 -6.301,-1.194 -8.688,-3.582 -2.392,-2.388 -3.584,-5.284 -3.584,-8.689 V 72.743 c 0,-3.402 1.192,-6.3 3.584,-8.688 2.388,-2.389 5.283,-3.583 8.688,-3.583 h 5.052 c 3.403,0 6.3,1.195 8.688,3.583 2.388,2.389 3.583,5.286 3.583,8.688 v 22.251 c 0,1.385 -0.477,2.557 -1.43,3.512 -0.955,0.956 -2.122,1.435 -3.504,1.435 h -2.468 c -1.38,0 -2.549,-0.477 -3.504,-1.432 -0.955,-0.953 -1.429,-2.12 -1.429,-3.501 V 75.281 c 0,-1.644 -0.821,-2.467 -2.464,-2.467 -1.647,0 -2.468,0.824 -2.468,2.467 v 27.123 c 0,1.646 0.834,2.468 2.498,2.468 h 2.496 c 3.403,0 6.3,1.204 8.688,3.612 2.388,2.408 3.583,5.328 3.583,8.759 v 4.945 z"
       ns2:knockout="Off"
       inkscape:connector-curvature="0" /></g></svg>